<?xml version="1.0" encoding="utf-8"?>
<!-- Generator: Adobe Illustrator 27.5.0, SVG Export Plug-In . SVG Version: 6.00 Build 0)  -->
<svg version="1.1" id="Слой_1" xmlns="http://www.w3.org/2000/svg" xmlns:xlink="http://www.w3.org/1999/xlink" x="0px" y="0px"
	 viewBox="0 0 256 256" style="enable-background:new 0 0 256 256;" xml:space="preserve">
<style type="text/css">
	.st0{fill:#246075;}
	.st1{fill:#1EC8FF;}
	.st2{fill:#FFFFFE;}
</style>
<path class="st0" d="M60,0h136c33.1,0,60,26.9,60,60v136c0,33.1-26.9,60-60,60H60c-33.1,0-60-26.9-60-60V60C0,26.9,26.9,0,60,0z"/>
<path class="st1" d="M189.3,77.9c0-0.3,0-0.7,0-1c0.1,0.2,0.2,0.5,0.2,0.7C189.6,77.7,189.4,77.8,189.3,77.9z"/>
<g>
	<path class="st2" d="M73.5,115.2c36.4,0,72.6,0,108.7,0c0.7,1.1,0.4,2.2,0.4,3.2c0,22.5,0,45.1,0,67.6c0,5.1-0.6,5.6-5.8,5.6
		c-3.8,0-7.7,0-11.8,0c0,7.1,0.1,13.8,0,20.6c-0.1,7.5-4.9,12.4-11.9,12.3c-6.7,0-11.6-4.7-11.7-11.5c-0.1-7,0-14.1,0-21.3
		c-8,0-15.7,0-23.8,0c0,5.3,0,10.6,0,15.8c0,1.7,0,3.4,0,5.1c-0.1,6.8-4.8,11.6-11.4,11.8c-6.7,0.2-11.8-4.3-12.2-11
		c-0.3-6.3-0.2-12.7-0.3-19c0-0.8,0.3-1.7-0.4-2.9c-5.1,0-10.5,0-15.8,0c-3.2,0-4.2-1-4.2-4.3c0-23.5,0-47,0-70.5
		C73.4,116.4,73.5,115.9,73.5,115.2z"/>
	<path class="st2" d="M181.8,109.2c-35.8,0-71.6,0-107.4,0c-4.5-12.6-1.2-36.3,18.5-52.3c19.4-15.7,46.4-16.7,66.7-2.6
		C180.1,68.5,186.8,92.3,181.8,109.2z M109.5,78.3c0-3.2-2.4-5.7-5.7-5.7c-3.2,0-5.6,2.5-5.5,5.8c0,3,2.5,5.5,5.5,5.6
		C106.9,84,109.4,81.5,109.5,78.3z M157.8,78.4c0-3.3-2.3-5.8-5.5-5.8c-3.2,0-5.7,2.4-5.7,5.7c0,3.1,2.4,5.6,5.4,5.7
		C155.1,84.1,157.7,81.6,157.8,78.4z"/>
	<path class="st2" d="M186.6,133.2c0-6.3,0-12.7,0-19c0-6.1,4.2-10.6,9.7-10.6c5.5,0,9.6,4.5,9.7,10.6c0,12.8,0,25.5,0,38.3
		c0,6.1-4.2,10.6-9.7,10.5c-5.6,0-9.6-4.5-9.6-10.6C186.5,146.1,186.6,139.7,186.6,133.2z"/>
	<path class="st2" d="M69.4,133.7c0,6.4,0,12.9,0,19.3c0,5.8-4.3,10.2-9.8,10.2c-5.3,0-9.6-4.4-9.6-10c-0.1-13.2-0.1-26.4,0-39.6
		c0-5.6,4.5-9.9,9.8-9.9c5.3,0,9.5,4.4,9.6,10C69.5,120.4,69.4,127,69.4,133.7z"/>
	<path class="st2" d="M106.8,42.3c-3.4,1.6-6.3,3.1-9.6,4.6c-2.4-2.4-5.1-4.8-7.5-7.6c-1.7-2-1.2-4.9,0.8-6.6c2-1.7,4.7-1.8,6.7,0.1
		C100.4,35.8,103.4,39,106.8,42.3z"/>
	<path class="st2" d="M149.1,42.2c3.3-3.3,6.4-6.4,9.6-9.4c2.2-2,5-1.9,6.9,0c2,2,2.2,4.9,0.1,7.2c-2.1,2.4-4.4,4.6-6.6,6.9
		C155.8,45.4,152.8,44,149.1,42.2z"/>
</g>
</svg>
