<?xml version="1.0" encoding="utf-8"?>
<!-- Generator: Adobe Illustrator 27.5.0, SVG Export Plug-In . SVG Version: 6.00 Build 0)  -->
<svg version="1.1" id="Слой_1" xmlns="http://www.w3.org/2000/svg" xmlns:xlink="http://www.w3.org/1999/xlink" x="0px" y="0px"
	 viewBox="0 0 256 256" style="enable-background:new 0 0 256 256;" xml:space="preserve">
<style type="text/css">
	.st0{fill:#2C72C7;}
	.st1{fill:#FE9B0E;}
	.st2{fill:#333333;}
	.st3{fill:#FC9910;}
	.st4{fill:#DD7F10;}
	.st5{fill:#C0C2C1;}
	.st6{fill:#E1810D;}
	.st7{fill:#E4E4E4;}
	.st8{fill:#FFFFFF;}
	.st9{fill:#A2432B;}
	.st10{fill:#B05030;}
</style>
<path class="st0" d="M60,0h136c33.1,0,60,26.9,60,60v136c0,33.1-26.9,60-60,60H60c-33.1,0-60-26.9-60-60V60C0,26.9,26.9,0,60,0z"/>
<g>
	<path d="M157.6,53.3c3.3,4.5,4.5,9.8,5.3,15.2c0.3,2.5-0.3,4.9-0.6,7.3c-1.5,11.3,1.2,21.4,7.9,30.6c1.6,2.2,3.6,4.1,5.5,6
		c8.1,8.1,12.7,18,15.2,29.1c0.8,3.8,1.1,7.6,1.4,11.4c0.1,1.3-0.2,2.6-0.3,3.9c-0.3,2-0.4,4.1,0.8,6.2c2.8,4.8,1.7,9.5-0.9,14
		c-2.4,2.6-4.8,4.7-8.8,5.4c-5.4,1-11.7-2.2-14-6.5c-2.8-5.2-2.5-10.3,0.8-15.2c2.3-1.3,2.8-3.4,2.5-5.9c-0.3-2.4-0.6-4.9-1.1-7.2
		c-2.8-12.6-6.8-24.8-12.4-36.4c-2.9-5.9-6.6-11.4-10.9-16.5c2.9-3.4,2.7-5.1-0.9-7.9c-1.4-1.1-3-1.9-4.2-3.4c5-3,5.6-10.4,3.1-14.4
		c-2.6-4.2-7.3-4.5-10-0.5c-2,2.9-2.6,6-1.4,9.3c-1.7,0.2-3-0.8-4.6-1.1c0-12.1,0-24.1,0-36.2c11.2-1,20.1,3.2,27,11.9
		C157.6,53.3,157,52.5,157.6,53.3L157.6,53.3z"/>
	<path class="st1" d="M114.2,209.5c-2.1,3.1-4.9,5.1-8.6,5.8c-2.9,0.6-5.6-0.6-8.4-1.1c-8.4-1.4-16.7-3.1-25.1-4.7
		c-3-0.6-5.9-1.5-9-1.8c-1.2-0.1-2.3-0.1-3.4-0.1c-0.6-0.2-0.7-0.9-1.4-1.2c-3.8-1.8-5.6-7-2.9-10.9c2.6-3.6,4.3-7.5,4.9-12
		c0.3-2.2,1.3-4.3,2.9-6c0.1-0.1,0.3-0.2,0.4-0.3c1.2-1.2,2.5-2.1,4.3-2.3c1.5-0.1,2.8-1,4.1-1.8c0.2-0.1,0.4-0.3,0.6-0.4
		c2.8-2.3,5.5-4.7,7.1-8.1c0.8-1.2,1.6-2.3,2.4-3.5c0.2-0.1,0.3-0.2,0.5-0.4c3.4-1.6,6.6-0.7,8.5,2.4c1.2,1.9,2.3,3.8,3.5,5.6
		c3.9,5.8,7.1,11.9,11.4,17.4c1.7,3.5,4.1,6.6,6.1,9.9c0.2,0.2,0.3,0.3,0.5,0.5l0,0c0.2,0.2,0.3,0.3,0.5,0.5l0,0c0,0.2,0,0.3,0,0.5
		C115.3,201.4,115.9,205.3,114.2,209.5z"/>
	<path class="st2" d="M82.1,161.2c-0.8,1.2-1.6,2.3-2.4,3.5c-0.2-0.4-0.5-0.7-0.5-1.1c-1-14.7,0.9-28.7,9.6-41
		c2.6-3.8,5.8-7.1,8.6-10.8c3.7-4.8,6-10.2,7.2-16.2c1.7-8,0.1-15.7-1.4-23.5c-0.7-3.9,0.2-7.9,1.5-11.6c2.7-7.6,7.6-13.7,15-17.2
		c3.2-1.5,6.6-2.7,10.3-2.6c0,12.1,0,24.1,0,36.2c0,0,0,0.2,0,0.2c-2.2-0.3-4.3,0-6.4,0.4c0-0.7-0.1-1.5,0-2.2
		c0.2-2.5-0.3-4.8-1.7-6.9c-2-2.9-6.3-3.3-8.7-0.8c-4.4,4.7-3.7,11.3,1.8,16c-1.6,1.8-3.2,3.7-4.8,5.5c-1,1.1-1.2,2.1-0.3,3.6
		c1.1,1.8,3.1,2.6,4.2,4.3c-6.6,8.8-11.3,18.5-15,28.8c-3.6,9.8-6,19.8-7.5,30.1c-0.1,0.9-0.1,1.7,0.7,2.5
		c7,6.8,13.3,14.3,22.5,18.4c3,1.4,3,3.8,0.5,6.1c-2.7,2.5-6,3-9.4,3.5c-4.2-5.5-7.5-11.7-11.4-17.4c-1.2-1.8-2.4-3.7-3.5-5.6
		c-1.9-3.1-5-3.9-8.5-2.4C82.3,160.7,82.2,160.9,82.1,161.2z"/>
	<path class="st3" d="M72.7,172.8c-0.2,0.1-0.4,0.3-0.6,0.4C72.2,172.9,72.3,172.7,72.7,172.8z"/>
	<path class="st3" d="M63.7,177.3c-0.1,0.1-0.3,0.2-0.4,0.3C63.3,177.4,63.3,177.2,63.7,177.3z"/>
	<path class="st4" d="M169.9,160.8c-3.3,4.9-3.7,10-0.8,15.2c2.3,4.3,8.6,7.5,14,6.5c4-0.7,6.3-2.8,8.8-5.4c2.5,1.4,3.6,3.8,3.8,6.3
		c0.5,5,3,9,5.4,13.2c2,3.6,0.5,8.7-3.4,10c-5.5,1.8-11.3,2.5-17,3.5c-5.4,1-10.8,2.1-16.2,3.2c-3.9,0.8-7.7,1.8-11.7,2.2
		c-5,0.5-8.7-2.1-11-6.5c-0.7-2.8-1.4-5.5-0.3-8.4c5.8-9.1,11.6-18.3,17.4-27.4c2.2-3.5,4.4-7,6.7-10.4
		C166.5,161.3,167.5,159.5,169.9,160.8z"/>
	<path class="st2" d="M114.2,209.5c1.7-4.2,1.1-8.2-1.1-12c0.1-0.1,0.3-0.3,0.4-0.4c0.9,0.4,1.7,0.8,2.6,1.2c4.5,1.8,9,3.4,13.9,3.1
		c0,0.1,0,0.2,0,0.3c0,1.9,0,3.9,0,5.8C124.6,207.4,119.4,208.5,114.2,209.5z"/>
	<path d="M130,207.4c0-1.9,0-3.9,0-5.8c3.9,0,7.7-0.1,11.5-1c-1.1,2.8-0.3,5.6,0.3,8.4C137.9,208,133.9,208.1,130,207.4z"/>
	<path class="st5" d="M141.5,200.6c-3.8,0.9-7.6,1-11.5,1c0-0.1,0-0.2,0-0.3c0-32.5,0-65,0-97.4c6.7-1.7,12.8-4.5,17.9-9.1
		c4.3,5.1,8,10.5,10.9,16.5c5.6,11.6,9.7,23.8,12.4,36.4c0.5,2.4,0.7,4.8,1.1,7.2c0.4,2.5-0.1,4.6-2.5,5.9c-2.3-1.3-3.3,0.6-4.3,2
		c-2.3,3.4-4.5,7-6.7,10.4C153.1,182.3,147.3,191.5,141.5,200.6z"/>
	<path class="st6" d="M147.9,94.8c-5.2,4.7-11.3,7.4-17.9,9.1l0-0.1c0-0.8,0-1.6,0-2.4c0.5-0.2,0.9-0.5,1.4-0.5
		c5.8-0.5,10.2-3.4,14-7.6c1.1-1.2,0.8-1.7-0.4-2.4c-1.4-0.9-2,0.3-2.6,1c-3.3,3.7-7.4,5.7-12.4,6c0-6.9,0-13.9,0-20.8
		c0,0,0-0.2,0-0.2c1.6,0.3,2.9,1.3,4.6,1.1c1,0.9,1.7,2.4,3.5,2c0.8,1.3,2.1,1.8,3.3,2.6c0.3,0.6,0.8,0.9,1.4,1
		c1.1,1.4,2.8,2.3,4.2,3.4C150.6,89.8,150.8,91.4,147.9,94.8z"/>
	<path class="st7" d="M138.1,80c-1.8,0.4-2.5-1.1-3.5-2c-1.2-3.3-0.6-6.4,1.4-9.3c2.7-4,7.5-3.7,10,0.5c2.5,4,1.8,11.4-3.1,14.4
		c-0.7-0.1-1.2-0.4-1.4-1c2.4-2,3.5-5.7,2.2-8.5c-0.5-1.1-0.8-2.4-2.5-2.5c-1.8-0.1-2.4,0.9-3,2.2C137.1,75.8,137.3,77.9,138.1,80z"
		/>
	<path class="st8" d="M130,104c0,32.5,0,65,0,97.4c-5,0.4-9.5-1.3-13.9-3.1c-0.9-0.3-1.7-0.8-2.6-1.2c-0.1-0.1-0.3-0.1-0.4-0.1
		c0,0,0,0,0,0c-0.2-0.2-0.3-0.3-0.5-0.5c0,0,0,0,0,0c-0.2-0.2-0.3-0.3-0.5-0.5c-2-3.3-4.4-6.4-6.1-9.9c3.4-0.5,6.7-1,9.4-3.5
		c2.5-2.3,2.5-4.7-0.5-6.1c-9.1-4.2-15.5-11.6-22.5-18.4c-0.8-0.8-0.8-1.6-0.7-2.5c1.4-10.3,3.9-20.3,7.5-30.1
		c3.7-10.3,8.4-20,15-28.8c0.5,0,0.9,0.3,1.3,0.5c4.5,3,9,5.8,14.5,6.4L130,104z"/>
	<path class="st3" d="M82.1,161.2c0-0.3,0.1-0.5,0.5-0.4C82.5,161,82.3,161.1,82.1,161.2z"/>
	<path class="st3" d="M112.1,196.1c0.2,0.2,0.3,0.3,0.5,0.5C112.4,196.4,112.2,196.2,112.1,196.1z"/>
	<path class="st3" d="M112.6,196.6c0.2,0.2,0.3,0.3,0.5,0.5C112.9,196.9,112.7,196.7,112.6,196.6z"/>
	<path class="st3" d="M113.1,197.1c0.1,0,0.3,0,0.4,0.1c-0.1,0.1-0.3,0.3-0.4,0.4C113,197.4,113.1,197.2,113.1,197.1z"/>
	<path class="st3" d="M130,103.8c-5.5-0.5-10.1-3.4-14.5-6.4c-0.4-0.3-0.8-0.6-1.3-0.5c-1.1-1.7-3.1-2.5-4.2-4.3
		c-0.9-1.5-0.7-2.5,0.3-3.6c1.6-1.8,3.2-3.6,4.8-5.5c0.3-0.3,0.7-0.7,1-1c1.5-0.8,3-1.7,4-3.1c1.2-0.7,2.3-1.3,3.5-2
		c2.1-0.4,4.2-0.7,6.4-0.4c0,6.9,0,13.9,0,20.8l0,0.1c-3.3,0.2-6.3-1-9.3-2.4c-2.3-1.2-4.2-3-6.2-4.5c-1-0.8-1.6-0.3-2.3,0.4
		c-1,1-0.1,1.5,0.5,2c1.5,1.2,3,2.3,4.5,3.5c3.8,2.8,8.2,3.7,12.7,4.6l0,0.1C130,102.2,130,103,130,103.8z"/>
	<path class="st7" d="M123.6,77.5c-1.2,0.7-2.3,1.3-3.5,2c0.4-2.2,0.5-4.3-0.5-6.3c-1.2-2.4-3.5-2.8-4.7-0.7
		c-1.5,2.7-1.9,7.4,1.2,10.1c-0.3,0.3-0.7,0.7-1,1c-5.5-4.6-6.2-11.3-1.8-16c2.4-2.5,6.7-2.1,8.7,0.8c1.4,2.1,1.9,4.4,1.7,6.9
		C123.5,76,123.6,76.7,123.6,77.5z"/>
	<path class="st9" d="M130,97.9c4.9-0.3,9-2.3,12.4-6c0.7-0.7,1.2-1.9,2.6-1c1.2,0.7,1.5,1.3,0.4,2.4c-3.8,4.2-8.2,7.1-14,7.6
		c-0.5,0-0.9,0.3-1.4,0.5c0,0,0-0.1,0-0.1c0-1.1,0-2.3,0-3.4L130,97.9z"/>
	<path d="M138.1,80c-0.8-2.1-1-4.2,0-6.3c0.7-1.3,1.3-2.4,3-2.2c1.7,0.1,2,1.5,2.5,2.5c1.2,2.9,0.2,6.5-2.2,8.5
		C140.2,81.8,138.9,81.2,138.1,80z"/>
	<path d="M116.1,82.5c-3.1-2.7-2.7-7.3-1.2-10.1c1.1-2.1,3.4-1.7,4.7,0.7c1.1,2,1,4.1,0.5,6.3C119.1,80.9,117.6,81.7,116.1,82.5z"/>
	<path class="st10" d="M130,98c0,1.1,0,2.3,0,3.4c-4.5-0.8-9-1.7-12.7-4.6c-1.5-1.1-3-2.3-4.5-3.5c-0.6-0.5-1.5-1-0.5-2
		c0.7-0.7,1.3-1.2,2.3-0.4c2,1.6,3.9,3.4,6.2,4.5C123.7,97,126.7,98.1,130,98z"/>
</g>
</svg>
