<?xml version="1.0" encoding="utf-8"?>
<!-- Generator: Adobe Illustrator 27.5.0, SVG Export Plug-In . SVG Version: 6.00 Build 0)  -->
<svg version="1.1" id="Слой_1" xmlns="http://www.w3.org/2000/svg" xmlns:xlink="http://www.w3.org/1999/xlink" x="0px" y="0px"
	 viewBox="0 0 256 256" style="enable-background:new 0 0 256 256;" xml:space="preserve">
<style type="text/css">
	.st0{fill:#3E37A1;}
	.st1{fill:#1EC8FF;}
	.st2{fill:#FFFFFF;}
</style>
<path class="st0" d="M60,0h136c33.1,0,60,26.9,60,60v136c0,33.1-26.9,60-60,60H60c-33.1,0-60-26.9-60-60V60C0,26.9,26.9,0,60,0z"/>
<path class="st1" d="M189.3,77.9c0-0.3,0-0.7,0-1c0.1,0.2,0.2,0.5,0.2,0.7C189.6,77.7,189.4,77.8,189.3,77.9z"/>
<g>
	<path class="st2" d="M186,132.2c10.3,0,18.9-1.5,18.9,5.5c-0.1,21.5,0,42.9,0,64.4c0,2.6,0.3,3.6-2.7,4.9c-1.8,0.7-3.2,0.5-4.4,0.5
		c-21.8-3-43.4-7-65-10.8c-5.6-1,0,0-5.6-1c-2.2-0.4-3.5-2-3.5-4.4c0-18.3,0-36.5,0-54.8c0-2.7,1.7-4.3,4.7-4.3c6.6,0,13.1,0,19.7,0
		"/>
	<path class="st2" d="M171,52.6c27.2-4.8,0,0,27.2-4.8c4.8-0.8,6.4,0.6,6.7,5.4c-0.2,22.3,1.1,44.9-0.6,67c-0.6,2.1-2.3,3.1-4.7,3.1
		c-10.1-0.1-20.1,0-30.2,0c-13.6,0-27.2,0-40.9,0c-3.5,0-4.9-1.4-4.9-4.9c0-16.8,0-33.7,0-50.5c-0.2-3.1-0.5-7.2,3.4-7.6
		c9.4-1.4,18.9-3,28.2-4.7"/>
	<path class="st2" d="M83.2,132.3c8.5,0,16.9,0,25.4,0c4.1,0,6,1.9,6,6c0,15.8,0,31.7,0,47.5c0,5.4-1.9,7.3-7.2,6.4
		c-17.3-3.2-34.7-6.1-52-9.1c-2.3-0.4-4-2-4-5c0.1-13.2,0.1-26.4,0-39.6c-0.1-4.7,0.5-6,6.2-6.2C66.1,132.1,74.7,132.3,83.2,132.3z"
		/>
	<path class="st2" d="M51.5,87c0.4-17.2-3.7-12.2,19.4-17c10-1.8,20-3.6,30-5.4c4.6-0.5,10.1-3.2,13.7,0.9c0,17.1,0.1,34.2,0.1,51.3
		c0.4,3-1.5,6.5-4.9,6.4c-18.1,0-36.1,0-54.2,0c-2.6,0-4.2-1.7-4.1-4.5C51.5,86.7,51.4,118.7,51.5,87z"/>
</g>
</svg>
