<svg xmlns="http://www.w3.org/2000/svg" width="256" height="256" fill="none" viewBox="0 0 256 256"><rect width="256" height="256" fill="#f4f2ed" rx="60"/><path fill="#4c4c4c" d="M216.042 167.814V74.7425L135.381 28.2068V63.9876l31.644 18.2006C168.266 82.8087 168.266 84.6701 167.025 85.2906L129.383 107.007C128.348 107.628 126.901 107.628 125.867 107.007L88.2244 85.0838c-1.241-.620499999999993-1.241-2.4819.0-3.1024L119.869 63.7808V28L39.2068 74.5357V167.814 167.4 167.814l31.0238-17.787V113.419C70.2306 112.178 71.6783 111.144 72.9193 111.971l37.6417 21.717C111.596 134.308 112.423 135.549 112.423 136.79v43.433C112.423 181.464 110.975 182.498 109.734 181.671l-31.6441-18.2-31.0238 17.786 80.6619 46.536 80.662-46.536-31.024-17.786-31.644 18.2C144.688 182.292 143.033 181.464 143.033 180.223V136.79C143.033 135.549 143.654 134.308 144.894 133.688l37.643-21.717C183.571 111.351 185.225 112.178 185.225 113.419v36.608l30.817 17.787z"/><path fill="#000" d="M127.521 228l80.662-46.535-31.024-17.787-31.644 18.2C144.481 182.499 142.826 181.671 142.826 180.43V136.997C142.826 135.756 143.447 134.515 144.688 133.895l37.642-21.717C183.364 111.558 185.019 112.385 185.019 113.626v36.608l31.023 17.787V74.7427L127.521 125.829V228z"/><path fill="gray" d="M135.174 28V63.7808l31.644 18.2006C168.059 82.6019 168.059 84.4633 166.818 85.0838L129.176 106.8C128.142 107.421 126.694 107.421 125.66 106.8L88.2244 85.0838c-1.241-.620499999999993-1.241-2.4819.0-3.1024L119.869 63.7808V28L39.2068 74.5357 127.728 125.622l88.521-51.0863L135.174 28z"/><path fill="#4c4c4c" d="M109.321 181.671l-31.6447-18.2-31.0238 17.787 80.6615 46.535V125.622L39 74.7427V168.021 167.607 168.021l31.0238-17.787V113.626C70.0238 112.385 71.4716 111.351 72.7125 112.178l37.6425 21.717C111.389 134.515 112.216 135.756 112.216 136.997V180.43C112.009 181.464 110.562 182.292 109.321 181.671z"/></svg>